<?xml version="1.0" encoding="UTF-8" standalone="no"?>
<!-- Created with Inkscape (http://www.inkscape.org/) -->

<svg
   xmlns:dc="http://purl.org/dc/elements/1.1/"
   xmlns:cc="http://creativecommons.org/ns#"
   xmlns:rdf="http://www.w3.org/1999/02/22-rdf-syntax-ns#"
   xmlns:svg="http://www.w3.org/2000/svg"
   xmlns="http://www.w3.org/2000/svg"
   xmlns:sodipodi="http://sodipodi.sourceforge.net/DTD/sodipodi-0.dtd"
   xmlns:inkscape="http://www.inkscape.org/namespaces/inkscape"
   width="885"
   height="300"
   viewBox="0 0 829.68746 281.25001"
   id="svg2"
   version="1.1"
   inkscape:version="0.92.1 r15371"
   sodipodi:docname="banner.svg">
  <defs
     id="defs4" />
  <sodipodi:namedview
     id="base"
     pagecolor="#ffffff"
     bordercolor="#666666"
     borderopacity="1.0"
     inkscape:pageopacity="0.0"
     inkscape:pageshadow="2"
     inkscape:zoom="0.49497475"
     inkscape:cx="211.66272"
     inkscape:cy="232.55672"
     inkscape:document-units="px"
     inkscape:current-layer="layer1"
     showgrid="false"
     inkscape:window-width="1280"
     inkscape:window-height="976"
     inkscape:window-x="0"
     inkscape:window-y="48"
     inkscape:window-maximized="1"
     units="px" />
  <metadata
     id="metadata7">
    <rdf:RDF>
      <cc:Work
         rdf:about="">
        <dc:format>image/svg+xml</dc:format>
        <dc:type
           rdf:resource="http://purl.org/dc/dcmitype/StillImage" />
        <dc:title></dc:title>
      </cc:Work>
    </rdf:RDF>
  </metadata>
  <g
     inkscape:label="Capa 1"
     inkscape:groupmode="layer"
     id="layer1"
     transform="translate(0,-771.11223)">
    <path
       inkscape:connector-curvature="0"
       id="path4198"
       d="m 160.57144,620.21939 v -128 h 128 128 v 128 128 h -128 -128 z"
       style="fill:#fefefd" />
    <g
       id="g4139"
       transform="matrix(0.76251596,0,0,0.76101699,602.92778,186.82348)">
      <path
         sodipodi:nodetypes="sssscccssccccs"
         style="fill:#cecece;fill-opacity:1"
         d="m 11.114414,1050.9999 c -4.2869535,-2.2206 -7.4240143,-5.3362 -8.9540855,-8.8926 -1.1052051,-2.5688 -1.34486663,-18.3825 -1.34486663,-88.7388 0,-95.28343 -0.40022709,-89.59682 6.68243093,-94.94713 l 3.4638222,-2.61659 h 88.919858 88.919857 l 3.46383,2.61659 c 1.90509,1.43913 4.29834,4.28056 5.31832,6.31428 1.7491,3.48748 1.83761,6.14148 1.55668,46.6834 2.04044,71.91924 -0.19117,45.86988 -0.19454,97.75655 -0.002,33.9494 1.37907,32.7854 -5.77184,38.4458 -20.95484,7.4317 -67.21945,4.587 -92.15743,4.6574 -77.409652,0.2184 -87.28263,0.078 -89.902036,-1.2789 z"
         id="path4192"
         inkscape:connector-curvature="0" />
      <path
         sodipodi:nodetypes="cscsssssscccsscc"
         style="fill:#dddddd;fill-opacity:1"
         d="M 147.20908,908.28449 C 96.452545,887.28748 39.903901,900.88556 4.8325859,942.52134 l -3.5389251,5.42633 -0.963463,-42.34061 c -0.9654434,-42.42768 0.28276999,-42.59666 2.4888251,-45.65971 1.2175716,-1.69058 4.1155692,-3.98557 6.4400035,-5.1 4.1857496,-2.00682 5.0507436,-2.02623 90.2706696,-2.02623 83.780394,0 86.144464,0.0505 89.846164,1.92086 2.09095,1.05647 4.83203,3.35148 6.09126,5.09999 l 2.28952,3.17915 1.49759,42.74284 0.25905,44.2148 -3.6824,-4.38623 c -1.34505,-1.60211 -3.40144,-4.22571 -4.57176,-5.82857 -3.13768,-4.2973 -16.28605,-15.54098 -24.5446,-20.98903 -8.35135,-5.31461 -12.67059,-7.68491 -19.50544,-10.49044 z"
         id="path4184"
         inkscape:connector-curvature="0" />
      <path
         sodipodi:nodetypes="ssssssssssscs"
         style="fill:#ebebeb;fill-opacity:1"
         d="m 195.38604,895.85461 c -22.10464,-16.65596 -49.93109,-27.78833 -77.51233,-31.00991 -12.58652,-1.47015 -35.347822,-0.54494 -47.694727,1.93872 -23.723704,4.77216 -46.066415,13.85331 -68.9053678,32.10018 -1.81364649,1.44899 -1.07044174,-0.12588 -1.15839086,-17.67556 -0.08002776,-15.96932 0.7419934,-18.80516 2.57894386,-21.23881 2.9232253,-3.87276 7.9016788,-5.71314 12.2908968,-6.72135 2.14994,-0.49383 40.632318,-0.88457 87.219975,-0.8856 78.79458,-0.002 83.59013,0.096 87.33646,1.78145 4.28967,1.9298 8.96229,6.76742 9.80274,10.1489 0.28855,1.16097 0.39876,9.40253 0.24492,18.31457 l -0.27971,16.20372 z"
         id="path4178"
         inkscape:connector-curvature="0" />
      <path
         sodipodi:nodetypes="zccsccccscccccccssccscccszccszz"
         style="fill:#af5d7b;fill-opacity:1"
         d="m 11.222632,1050.4341 c -2.0812455,-3.509 -2.5079859,-45.6537 11.552797,-66.41418 6.578261,-9.68125 9.341673,-12.33767 11.205813,-14.12067 8.134618,-7.82633 16.649617,-13.45462 26.328255,-17.40258 12.288851,-5.01268 16.661832,-5.78267 32.421593,-5.70873 20.78845,-0.0591 32.33068,4.93677 44.32439,11.30236 -4.956,-9.29744 2.62532,-23.28615 5.03328,-27.84529 2.89447,-3.27592 3.79148,-4.18798 6.81909,-5.5578 -0.4117,0 -0.62369,2.2149 -0.47113,4.92201 l 0.2774,4.922 6.65372,0.27546 6.65372,0.27546 v 7.11967 7.11968 l 6.81867,-0.63119 6.81866,-0.63122 -0.30468,4.95515 c -0.16756,2.72532 -0.312,4.41437 -0.50306,5.89265 -0.34036,2.63347 -0.0925,3.10763 3.17375,2.99051 6.14794,-0.55786 4.57392,-0.55306 8.542,-0.6467 2.23895,0 2.25958,0.0774 1.93686,7.26582 l -0.3262,7.26582 5.91122,-0.23816 5.9112,-0.23815 -2.65535,2.8313 c -1.46046,1.55722 -4.22635,4.27035 -8.456,6.52049 -4.22965,2.25014 -10.47537,5.9299 -22.60733,2.54325 2.77096,6.77328 9.17683,21.82284 11.01661,33.58254 1.46339,9.9107 2.71501,27.9714 -1.08713,30.1235 -2.92709,1.6568 -48.99123,1.4766 -82.240761,1.2605 -33.249527,-0.2159 -80.666142,1.7756 -82.747387,-1.7335 z"
         id="path4182"
         inkscape:connector-curvature="0" />
      <path
         inkscape:connector-curvature="0"
         id="path4168"
         d="m 129.01418,999.35127 c -5.10576,-0.11863 -10.28808,2.35223 -12.99206,7.47113 -2.33571,4.4217 -1.86581,11.8975 1.00978,16.0818 l 2.07174,3.0157 h 9.55054 9.55236 l 2.05194,-2.9877 c 2.77926,-4.0442 3.35845,-11.0015 1.29057,-15.5167 -2.39865,-5.2374 -7.42911,-7.94562 -12.53487,-8.06423 z m -69.281967,0.85233 c -5.105758,-0.1187 -10.288079,2.3522 -12.992055,7.4711 -2.335715,4.4217 -1.86761,11.8975 1.007973,16.0818 l 2.073545,3.0157 h 9.550546 9.550547 l 2.053746,-2.9877 c 2.779259,-4.0442 3.356651,-11.0015 1.288765,-15.5167 -2.398654,-5.2375 -7.427309,-7.9456 -12.533067,-8.0642 z m 21.46803,29.8286 c -1.337087,0 -2.014146,0.8101 -2.014146,2.4152 0,1.8852 3.225552,4.1813 8.28878,5.9027 6.81507,2.3169 21.201643,-1.6861 21.201643,-5.899 0,-2.8341 -1.9193,-3.1158 -6.50863,-0.9586 -5.349638,2.5145 -11.885645,2.5089 -16.656761,-0.013 -1.831887,-0.9683 -3.270929,-1.4502 -4.310886,-1.4472 z"
         style="fill:#512440;fill-opacity:1" />
    </g>
    <g
       aria-label="Condiment"
       style="font-style:normal;font-weight:normal;font-size:37.5px;line-height:1.25;font-family:sans-serif;letter-spacing:0px;word-spacing:0px;fill:#565656;fill-opacity:1;stroke:none;stroke-width:0.9375"
       id="text30">
      <path
         d="m 74.256536,915.84349 q 0,-7.875 1.8,-15.4125 1.9125,-7.65 5.2875,-14.4 3.375,-6.8625 7.9875,-12.4875 4.725,-5.7375 10.2375,-9.9 5.625004,-4.1625 11.925004,-6.4125 6.3,-2.3625 12.9375,-2.3625 7.7625,0 12.0375,3.2625 4.3875,3.2625 4.3875,9.1125 0,2.25 -0.675,4.6125 -0.5625,2.3625 -1.8,4.725 -1.125,2.25 -2.7,4.3875 -1.575,2.1375 -3.4875,3.7125 -2.925,-0.45 -5.0625,-2.5875 -2.1375,-2.25 -2.7,-5.175 3.9375,-3.2625 6.1875,-6.75 2.3625,-3.6 2.3625,-6.525 0,-4.95 -6.1875,-4.95 -2.5875,0 -5.4,1.125 -2.7,1.0125 -5.5125,2.925 -2.8125,1.9125 -5.5125,4.6125 -2.5875,2.7 -4.8375,5.9625 -15.637504,22.5 -15.637504,46.0125 0,8.325 2.5875,13.3875 2.5875,5.0625 6.8625,5.9625 4.837504,-1.125 12.262504,-6.1875 7.425,-5.0625 16.2,-13.1625 1.125,1.125 1.35,2.3625 -3.2625,4.275 -6.75,8.2125 -3.4875,3.9375 -6.975,7.2 -3.375,3.2625 -6.75,5.7375 -3.2625,2.475 -6.075,3.825 -13.950004,-0.225 -21.150004,-7.9875 -7.2,-7.7625 -7.2,-22.8375 z"
         style="font-style:normal;font-variant:normal;font-weight:normal;font-stretch:normal;font-size:112.5px;font-family:'Kaushan Script';-inkscape-font-specification:'Kaushan Script';fill:#565656;fill-opacity:1;stroke-width:0.9375"
         id="path4547" />
      <path
         d="m 175.90204,892.44349 q 1.125,0 2.5875,0.45 1.575,0.3375 2.8125,1.0125 1.2375,0.5625 2.025,1.2375 0.9,0.675 0.9,1.2375 -2.25,4.725 -4.1625,9.5625 -1.9125,4.725 -3.2625,9.1125 -1.35,4.3875 -2.1375,8.2125 -0.675,3.825 -0.675,6.6375 0,3.15 0.675,5.2875 0.675,2.025 2.25,2.925 -1.35,0.9 -3.4875,1.4625 -2.1375,0.5625 -3.825,0.5625 -6.075,0 -6.075,-8.325 0,-6.4125 4.275,-17.55 -2.25,5.175 -5.175,9.7875 -2.925,4.5 -5.9625,7.9875 -3.0375,3.4875 -6.1875,5.7375 -3.0375,2.1375 -5.625,2.5875 -4.1625,-0.225 -6.75,-3.9375 -2.5875,-3.825 -2.5875,-9.675 0,-6.3 2.7,-13.275 2.7,-6.975 6.8625,-12.9375 4.275,-5.9625 9.225,-9.9 4.95,-4.05 9.5625,-4.275 1.125,0.3375 2.475,1.35 1.4625,1.0125 2.7,2.3625 1.35,1.35 2.25,2.8125 0.9,1.35 1.0125,2.3625 -4.5,0.675 -9.3375,4.3875 -4.725,3.7125 -8.6625,9 -3.825,5.175 -6.3,11.1375 -2.475,5.9625 -2.475,11.1375 0,2.1375 1.575,2.7 3.2625,-0.675 7.5375,-5.5125 4.275,-4.95 10.35,-15.1875 1.125,-2.025 2.475,-4.5 1.4625,-2.475 2.925,-5.175 1.4625,-2.7 2.8125,-5.4 1.4625,-2.8125 2.7,-5.4 z"
         style="font-style:normal;font-variant:normal;font-weight:normal;font-stretch:normal;font-size:112.5px;font-family:'Kaushan Script';-inkscape-font-specification:'Kaushan Script';fill:#565656;fill-opacity:1;stroke-width:0.9375"
         id="path4549" />
      <path
         d="m 208.26865,883.33099 q 2.925,0.9 5.5125,4.05 2.5875,3.0375 3.825,6.75 -1.2375,3.0375 -3.825,7.3125 -2.5875,4.275 -5.175,8.775 -2.5875,4.3875 -4.725,8.4375 -2.025,3.9375 -2.3625,6.525 1.8,-1.9125 3.9375,-4.3875 2.25,-2.5875 4.275,-5.0625 2.1375,-2.5875 3.9375,-4.6125 1.8,-2.1375 2.8125,-3.15 2.1375,-2.25 5.0625,-5.175 2.925,-3.0375 6.075,-5.625 3.2625,-2.7 6.525,-4.5 3.2625,-1.9125 5.9625,-1.9125 2.925,0 4.8375,2.025 2.025,1.9125 3.15,4.05 0,0.225 -0.9,0.675 -0.7875,0.3375 -2.3625,2.1375 -1.575,2.025 -3.6,5.625 -1.9125,3.4875 -3.825,7.65 -1.8,4.05 -3.0375,8.325 -1.2375,4.275 -1.2375,7.7625 0,2.8125 0.675,3.6 0.7875,0.7875 2.1375,0.7875 1.2375,0 2.5875,-0.5625 1.35,-0.5625 2.1375,-0.5625 0.45,0.225 0.675,1.0125 0.3375,0.675 0.3375,1.2375 -0.9,0.7875 -2.1375,1.575 -1.2375,0.7875 -2.5875,1.4625 -1.35,0.675 -2.7,1.125 -1.2375,0.45 -2.25,0.45 -3.2625,0 -5.4,-1.0125 -2.025,-0.9 -3.2625,-2.475 -1.125,-1.575 -1.575,-3.7125 -0.45,-2.25 -0.45,-4.725 0,-1.35 0.225,-3.0375 0.225,-1.6875 0.9,-3.9375 0.675,-2.3625 1.9125,-5.5125 1.2375,-3.2625 3.15,-7.7625 -0.225,0 -3.0375,1.575 -2.8125,1.575 -6.075,4.8375 -5.2875,5.0625 -9.5625,10.0125 -4.1625,4.95 -8.55,11.025 -2.475,3.4875 -4.3875,5.85 -1.8,2.475 -3.15,3.2625 -2.3625,-1.35 -3.4875,-3.825 -1.125,-2.3625 -1.6875,-4.95 0,-2.1375 0.5625,-5.4 0.675,-3.2625 1.6875,-7.2 1.125,-4.05 2.7,-8.4375 1.575,-4.3875 3.4875,-8.775 4.275,-9.9 7.7625,-15.525 3.6,-5.625 4.5,-6.075 z"
         style="font-style:normal;font-variant:normal;font-weight:normal;font-stretch:normal;font-size:112.5px;font-family:'Kaushan Script';-inkscape-font-specification:'Kaushan Script';fill:#565656;fill-opacity:1;stroke-width:0.9375"
         id="path4551" />
      <path
         d="m 275.21318,885.35599 q 2.25,0 5.175,1.35 2.925,1.35 5.175,3.4875 -0.5625,-4.5 -1.4625,-8.4375 -0.7875,-4.05 -2.475,-8.325 -1.575,-4.275 -4.275,-9.3375 -2.7,-5.0625 -6.75,-11.5875 0.3375,-1.0125 1.4625,-2.3625 1.2375,-1.35 2.7,-2.475 1.575,-1.2375 3.15,-2.1375 1.6875,-0.9 3.15,-1.125 3.15,3.4875 5.9625,8.775 2.8125,5.175 4.95,11.25 2.1375,5.9625 3.2625,12.375 1.2375,6.4125 1.2375,12.2625 0,5.85 -1.35,12.0375 -1.2375,6.1875 -3.6,12.15 -2.25,5.85 -5.2875,11.1375 -3.0375,5.2875 -6.6375,9.45 -3.4875,4.1625 -7.3125,6.75 -3.825,2.7 -7.65,3.375 -7.7625,-0.9 -11.925,-5.0625 -4.05,-4.05 -4.05,-11.25 0,-3.825 1.125,-8.325 1.2375,-4.5 3.15,-8.8875 2.025,-4.5 4.6125,-8.6625 2.7,-4.275 5.625,-7.65 3.0375,-3.375 6.075,-5.7375 3.0375,-2.3625 5.9625,-3.0375 z m -11.475,54.1125 q 3.9375,-1.35 7.875,-5.9625 3.9375,-4.6125 7.0875,-10.8 3.15,-6.3 5.0625,-13.3875 2.025,-7.2 2.025,-13.8375 0,-1.9125 0,-2.3625 0,-0.45 -0.1125,-0.9 -2.7,1.125 -5.7375,3.825 -3.0375,2.7 -6.075,6.3 -3.0375,3.4875 -5.7375,7.65 -2.7,4.1625 -4.8375,8.325 -2.1375,4.1625 -3.375,7.9875 -1.2375,3.825 -1.2375,6.75 0,5.625 5.0625,6.4125 z"
         style="font-style:normal;font-variant:normal;font-weight:normal;font-stretch:normal;font-size:112.5px;font-family:'Kaushan Script';-inkscape-font-specification:'Kaushan Script';fill:#565656;fill-opacity:1;stroke-width:0.9375"
         id="path4553" />
      <path
         d="m 341.76747,920.45599 q -2.5875,8.2125 -5.175,14.9625 -2.5875,6.75 -5.5125,12.375 -2.925,5.7375 -6.3,10.4625 -3.375,4.8375 -7.425,9.1125 -5.175,5.4 -10.6875,8.2125 -5.5125,2.925 -11.025,2.925 -2.8125,0 -5.625,-0.675 -2.7,-0.5625 -5.0625,-1.6875 -2.475,-1.0125 -4.275,-2.475 -1.9125,-1.35 -2.7,-2.925 0,-1.35 1.575,-2.3625 1.35,1.2375 2.25,1.9125 0.9,0.675 1.8,1.125 0.7875,0.45 1.8,0.5625 0.9,0.1125 2.1375,0.1125 6.4125,0 12.4875,-3.825 6.1875,-3.7125 11.5875,-10.6875 5.5125,-6.8625 10.0125,-16.7625 4.5,-9.7875 7.65,-21.9375 -1.4625,2.25 -3.6,5.5125 -2.1375,3.2625 -4.725,6.525 -2.5875,3.15 -5.4,5.7375 -2.7,2.5875 -5.2875,3.4875 -1.8,-0.1125 -3.825,-0.7875 -1.9125,-0.5625 -3.7125,-1.6875 -1.6875,-1.125 -3.0375,-2.7 -1.35,-1.575 -1.8,-3.6 0,-3.2625 0.225,-5.175 0.225,-2.025 0.7875,-4.3875 1.0125,-4.275 2.925,-9.675 2.025,-5.4 4.6125,-10.575 2.7,-5.2875 5.85,-9.7875 3.2625,-4.6125 6.75,-7.2 0.9,0 2.25,0.225 1.35,0.1125 2.8125,0.5625 1.4625,0.45 2.8125,1.125 1.35,0.5625 2.3625,1.575 -1.2375,1.125 -5.4,7.5375 -4.1625,6.4125 -9.225,18.45 -0.5625,1.2375 -1.35,3.6 -0.7875,2.3625 -1.575,4.95 -0.675,2.5875 -1.2375,5.0625 -0.5625,2.475 -0.5625,3.9375 0,0.9 0.225,1.35 0.3375,0.45 0.5625,0.675 2.025,-0.3375 5.4,-3.2625 3.375,-3.0375 7.65,-9.3375 2.7,-4.05 4.95,-7.9875 2.25,-4.05 4.3875,-8.1 2.25,-4.05 4.6125,-8.325 2.3625,-4.275 5.0625,-8.775 1.4625,0 3.15,0.3375 1.6875,0.3375 3.2625,0.9 1.575,0.45 2.7,1.125 1.2375,0.5625 1.8,1.2375 -3.4875,7.425 -6.525,14.5125 -3.0375,7.0875 -5.4,14.5125 z"
         style="font-style:normal;font-variant:normal;font-weight:normal;font-stretch:normal;font-size:112.5px;font-family:'Kaushan Script';-inkscape-font-specification:'Kaushan Script';fill:#565656;fill-opacity:1;stroke-width:0.9375"
         id="path4555" />
      <path
         d="m 393.21161,893.11849 q -0.1125,2.1375 -0.7875,4.5 -0.5625,2.25 -1.4625,4.1625 -0.9,1.8 -1.9125,3.0375 -1.0125,1.2375 -1.9125,1.2375 -1.2375,-0.1125 -1.4625,-1.6875 0,-0.3375 0.225,-1.0125 0.3375,-0.7875 0.675,-1.6875 0.3375,-0.9 0.5625,-1.8 0.3375,-0.9 0.3375,-1.575 0,-1.575 -0.7875,-2.5875 -0.675,-1.125 -1.9125,-1.125 -4.5,0 -6.8625,5.625 -2.3625,5.625 -2.3625,16.5375 0,1.125 0.1125,1.35 2.3625,-0.1125 4.1625,-0.1125 1.9125,-0.1125 3.7125,-0.1125 0.1125,0.225 0.1125,0.9 0,1.0125 -0.45,1.4625 -2.5875,0.5625 -4.1625,1.0125 -1.4625,0.3375 -2.25,0.675 -0.7875,0.3375 -1.0125,0.7875 -0.1125,0.3375 -0.1125,1.0125 0,0.9 0,1.8 0.1125,0.9 0.1125,2.25 0,9.45 -5.175,15.1875 -5.0625,5.7375 -14.175,6.6375 -1.575,-0.1125 -3.2625,-0.9 -1.6875,-0.7875 -3.2625,-2.025 -1.4625,-1.2375 -2.5875,-2.8125 -1.125,-1.4625 -1.575,-3.0375 0,-4.275 1.8,-8.1 1.8,-3.9375 4.8375,-6.8625 3.15,-3.0375 7.3125,-4.8375 4.275,-1.9125 9.225,-2.25 0,-2.8125 -0.5625,-5.5125 -0.5625,-2.7 -1.2375,-5.175 -0.5625,-2.5875 -1.125,-4.95 -0.5625,-2.475 -0.5625,-4.8375 0,-3.0375 1.2375,-5.9625 1.2375,-3.0375 3.2625,-5.5125 2.025,-2.5875 4.725,-4.3875 2.7,-1.8 5.625,-2.475 1.2375,0.3375 3.2625,2.025 2.1375,1.575 4.1625,3.6 2.025,2.025 3.6,4.1625 1.575,2.025 1.9125,3.375 z m -37.125,51.3 q 2.7,-1.125 5.0625,-3.2625 2.475,-2.1375 4.275,-4.8375 1.8,-2.7 2.8125,-5.7375 1.125,-3.0375 1.125,-5.9625 -2.25,0.3375 -4.95,2.1375 -2.7,1.6875 -5.0625,4.1625 -2.3625,2.3625 -3.9375,4.95 -1.575,2.5875 -1.575,4.5 0,2.475 2.25,4.05 z"
         style="font-style:normal;font-variant:normal;font-weight:normal;font-stretch:normal;font-size:112.5px;font-family:'Kaushan Script';-inkscape-font-specification:'Kaushan Script';fill:#565656;fill-opacity:1;stroke-width:0.9375"
         id="path4557" />
      <path
         d="m 393.17822,935.98099 q 0,-3.9375 0.7875,-9.225 0.7875,-5.4 2.25,-11.475 1.575,-6.075 3.6,-12.7125 2.1375,-6.6375 4.725,-13.275 2.25,-5.9625 5.175,-12.0375 3.0375,-6.075 6.525,-11.925 3.4875,-5.85 7.2,-11.1375 3.825,-5.2875 7.65,-9.675 1.8,0 3.825,0.45 2.1375,0.45 4.05,1.2375 2.025,0.675 3.6,1.6875 1.6875,1.0125 2.7,2.025 -8.4375,8.6625 -15.1875,17.55 -6.75,8.775 -10.6875,16.5375 -2.1375,4.275 -3.9375,7.9875 -1.6875,3.7125 -3.15,7.425 -1.4625,3.6 -2.7,7.3125 -1.125,3.6 -2.1375,7.65 21.6,-27.5625 32.0625,-27.5625 2.925,0 6.3,1.9125 3.375,1.9125 5.9625,5.175 -3.4875,3.825 -7.2,9.225 -3.7125,5.4 -6.8625,10.9125 -3.0375,5.4 -5.0625,10.125 -1.9125,4.6125 -1.9125,6.8625 0,1.125 0.3375,1.575 0.3375,0.3375 1.4625,0.3375 1.6875,0 2.7,-0.45 1.0125,-0.45 1.2375,-0.45 0.5625,0.9 0.675,1.2375 0.1125,0.3375 0.1125,0.5625 0,0.45 -1.35,1.35 -1.35,0.7875 -3.2625,1.6875 -1.8,0.7875 -3.6,1.4625 -1.8,0.675 -2.7,0.675 -1.125,0 -2.25,-0.675 -1.125,-0.5625 -2.025,-1.575 -0.7875,-1.0125 -1.35,-2.25 -0.45,-1.2375 -0.45,-2.5875 0,-1.6875 0.9,-4.95 1.0125,-3.375 2.7,-7.7625 1.6875,-4.5 4.05,-9.7875 2.3625,-5.2875 5.0625,-10.8 0,-0.45 -0.45,-0.45 -0.3375,0 -1.8,0.9 -1.35,0.9 -2.5875,1.8 -4.05,3.0375 -8.2125,7.5375 -4.05,4.3875 -7.9875,9.675 -3.825,5.2875 -7.3125,11.25 -3.375,5.85 -5.85,11.8125 -0.3375,0.7875 -1.0125,1.4625 -0.675,0.675 -1.125,0.675 -0.3375,0 -1.0125,-0.7875 -0.5625,-0.7875 -1.125,-2.025 -0.45,-1.125 -0.9,-2.3625 -0.45,-1.2375 -0.45,-2.1375 z"
         style="font-style:normal;font-variant:normal;font-weight:normal;font-stretch:normal;font-size:112.5px;font-family:'Kaushan Script';-inkscape-font-specification:'Kaushan Script';fill:#565656;fill-opacity:1;stroke-width:0.9375"
         id="path4559" />
      <path
         d="m 464.79325,941.83099 q -6.4125,-0.675 -10.2375,-5.625 -3.825,-4.95 -3.825,-12.6 0,-4.5 1.35,-9.3375 1.35,-4.8375 3.825,-9.3375 2.475,-4.6125 5.85,-8.6625 3.375,-4.05 7.3125,-6.975 6.1875,-4.6125 11.5875,-4.6125 3.6,1.9125 7.0875,7.9875 0.5625,0 1.0125,0 0.45,-0.1125 1.0125,-0.1125 5.9625,0 5.9625,10.575 0,7.0875 -2.3625,13.5 -2.25,6.3 -6.4125,11.475 -4.05,5.175 -9.7875,8.775 -5.625,3.4875 -12.375,4.95 z m 5.7375,-35.4375 q -1.9125,2.5875 -3.6,5.625 -1.6875,3.0375 -2.925,6.1875 -1.2375,3.0375 -1.9125,5.9625 -0.675,2.8125 -0.675,5.0625 0,2.7 0.9,5.175 0.9,2.475 2.025,2.8125 5.0625,-1.125 9.225,-4.1625 4.275,-3.15 7.3125,-7.7625 3.15,-4.6125 4.8375,-10.4625 1.8,-5.85 1.8,-12.4875 0,-2.925 -0.3375,-4.6125 -0.3375,-1.6875 -1.125,-2.925 -4.95,1.4625 -8.8875,4.725 -3.825,3.2625 -6.6375,6.8625 z"
         style="font-style:normal;font-variant:normal;font-weight:normal;font-stretch:normal;font-size:112.5px;font-family:'Kaushan Script';-inkscape-font-specification:'Kaushan Script';fill:#565656;fill-opacity:1;stroke-width:0.9375"
         id="path4561" />
      <path
         d="m 492.96396,975.13099 q -1.575,-0.45 -1.8,-3.375 -0.45,-1.4625 -0.675,-3.4875 -0.1125,-2.025 -0.1125,-4.6125 0,-2.3625 0.7875,-6.525 0.7875,-4.05 2.1375,-9.225 1.4625,-5.175 3.4875,-11.1375 2.025,-6.075 4.5,-12.2625 3.0375,-7.7625 5.2875,-13.3875 2.25,-5.7375 3.7125,-9.9 1.575,-4.1625 2.475,-6.8625 1.0125,-2.7 1.575,-4.6125 0.45,-1.35 1.35,-3.2625 0.9,-1.9125 2.025,-3.825 1.2375,-2.025 2.475,-3.7125 1.2375,-1.8 2.25,-2.7 3.9375,0.5625 7.425,2.025 3.4875,1.4625 4.275,2.8125 -1.575,1.4625 -3.6,4.6125 -2.025,3.0375 -3.9375,6.75 -1.9125,3.6 -3.4875,7.425 -1.575,3.825 -2.3625,6.75 1.125,-1.9125 2.925,-4.1625 1.8,-2.25 5.5125,-6.1875 4.1625,-4.275 7.7625,-6.525 3.7125,-2.3625 6.4125,-2.3625 4.275,0 6.975,2.3625 2.8125,2.3625 2.8125,6.075 0,8.1 -2.7,16.0875 -2.7,7.875 -7.7625,14.2875 -1.9125,2.475 -4.5,4.725 -2.5875,2.25 -5.4,4.05 -2.8125,1.6875 -5.5125,2.7 -2.7,1.0125 -4.8375,1.0125 -2.025,0 -3.6,-0.7875 -1.4625,-0.9 -2.025,-2.1375 4.3875,-2.5875 8.55,-7.2 4.1625,-4.6125 7.65,-10.575 3.6,-6.075 6.1875,-13.05 2.7,-6.975 4.05,-14.175 -4.275,2.25 -7.7625,4.95 -3.375,2.5875 -6.75,6.8625 -4.05,4.95 -6.4125,7.9875 -2.3625,3.0375 -3.9375,5.175 -1.4625,2.1375 -2.475,4.05 -0.9,1.8 -2.025,4.5 -1.575,3.6 -3.7125,9.5625 -2.025,5.85 -4.275,13.1625 -2.1375,7.3125 -4.3875,15.525 -2.1375,8.325 -4.1625,16.5375 -1.2375,-0.225 -2.1375,-1.8 -0.9,-1.0125 -1.35,-1.4625 -0.3375,-0.45 -0.9,-0.675 z"
         style="font-style:normal;font-variant:normal;font-weight:normal;font-stretch:normal;font-size:112.5px;font-family:'Kaushan Script';-inkscape-font-specification:'Kaushan Script';fill:#565656;fill-opacity:1;stroke-width:0.9375"
         id="path4563" />
    </g>
  </g>
</svg>
