<?xml version="1.0" encoding="utf-8"?>
<!-- Generator: Adobe Illustrator 25.0.1, SVG Export Plug-In . SVG Version: 6.00 Build 0)  -->
<svg version="1.1"
	 id="svg2" xmlns:cc="http://creativecommons.org/ns#" xmlns:dc="http://purl.org/dc/elements/1.1/" xmlns:inkscape="http://www.inkscape.org/namespaces/inkscape" xmlns:rdf="http://www.w3.org/1999/02/22-rdf-syntax-ns#" xmlns:sodipodi="http://sodipodi.sourceforge.net/DTD/sodipodi-0.dtd" xmlns:svg="http://www.w3.org/2000/svg"
	 xmlns="http://www.w3.org/2000/svg" xmlns:xlink="http://www.w3.org/1999/xlink" x="0px" y="0px" viewBox="0 0 885 300"
	 style="enable-background:new 0 0 885 300;" xml:space="preserve">
<style type="text/css">
	.st0{fill:#5DA649;}
	.st1{fill:none;}
	.st2{fill:#2D2B2B;}
	.st3{fill:#FFFFFF;}
	.st4{fill:#BA2025;}
	.st5{fill:#EEA794;}
	.st6{fill:#6BB87C;}
	.st7{fill:#108C55;}
</style>
<sodipodi:namedview  bordercolor="#666666" borderopacity="1.0" id="base" inkscape:current-layer="layer1" inkscape:cx="211.66272" inkscape:cy="232.55672" inkscape:document-units="px" inkscape:pageopacity="0.0" inkscape:pageshadow="2" inkscape:window-height="976" inkscape:window-maximized="1" inkscape:window-width="1280" inkscape:window-x="0" inkscape:window-y="48" inkscape:zoom="0.49497475" pagecolor="#ffffff" showgrid="false" units="px">
	</sodipodi:namedview>
<g>
	<g>
		<g>
			<path class="st0" d="M115.9,91.8c41-15,47,24.5,47,24.5S127.3,134.7,115.9,91.8"/>
			<path class="st0" d="M150.4,42.9c36.9,23.2,9.3,52.1,9.3,52.1S123.5,78.1,150.4,42.9"/>
			<path class="st0" d="M137.2,83.1c-43.4,4.2-39.3-35.3-39.3-35.3S136.8,38.8,137.2,83.1"/>
		</g>
		<g>
			<path class="st1" d="M227.8,120c-0.1,0.5,0.3,1,1.2,1.3C228.2,121.1,227.8,120.5,227.8,120z"/>
			<path class="st1" d="M233.9,126.1c-0.3-0.4-0.9-0.6-2-0.8C233,125.5,233.6,125.7,233.9,126.1z"/>
			<path class="st1" d="M229.1,126c-0.1,0.1-0.1,0.4,0,0.5C229,126.4,229,126.2,229.1,126z"/>
			<path class="st1" d="M230.7,118.9c0.3,0.1,0.5,0.3,0.9,0.4C231.3,119.1,230.9,118.9,230.7,118.9z"/>
			<path class="st1" d="M230.5,118.8c-0.4-0.1-0.8-0.1-0.9-0.1c-0.5,0-0.9,0.1-1.2,0.4l0,0C229.4,118.7,229.8,118.7,230.5,118.8z"/>
			<path class="st1" d="M212.5,116.5h0.1c-0.9-0.3-1.5-0.9-1.5-1.5C211.1,115.7,211.6,116.3,212.5,116.5z"/>
			<path class="st1" d="M206.3,116.6l0.1-0.1C206.3,116.5,206.3,116.5,206.3,116.6z"/>
			<path class="st1" d="M206.1,117.4C206.1,117.3,206.1,117.3,206.1,117.4C206.1,117.3,206.1,117.3,206.1,117.4z"/>
			<path class="st1" d="M206.1,116.9c0-0.1,0.1-0.3,0.1-0.4C206.2,116.8,206.2,116.8,206.1,116.9z"/>
			<path class="st1" d="M231.9,127.5c-1.3,0.1-2.3-0.1-2.7-0.5c0,0.1,0.1,0.1,0.1,0.3c0.5,0.5,1.9,0.5,3.1,0.3
				C232.3,127.4,232.2,127.4,231.9,127.5z"/>
			<path class="st1" d="M239.9,143.8c-0.1-0.1-0.1-0.1-0.3-0.1c-0.3,0-0.4,0.3-0.4,0.6C239.4,143.8,239.6,143.5,239.9,143.8z"/>
			<path class="st1" d="M215.7,115.1L215.7,115.1c-0.1-0.6-0.9-1-2.4-1.2C214.5,114.1,215.4,114.6,215.7,115.1z"/>
			<path class="st1" d="M206.8,116.1c0.1-0.1,0.3-0.1,0.4-0.3C207.1,116,207,116,206.8,116.1z"/>
			<path class="st1" d="M208.4,65.9c-0.6,0.4-1,0.9-0.6,1.4c0.4,0.5,1.3,0.9,2.4,1c-0.1,0-0.1,0-0.3,0
				C207.6,67.8,207.1,67,208.4,65.9z"/>
			<path class="st1" d="M219.4,64.4c0.9-0.3,1.5-0.4,2-0.4c-0.9,0-1.9,0.3-2.6,0.6C219,64.5,219.3,64.5,219.4,64.4z"/>
			<path class="st1" d="M210.9,68.5c0.9,0,1.9-0.1,2.7-0.4c0.1-0.1,0.3-0.1,0.5-0.3C213.1,68.2,212,68.5,210.9,68.5z"/>
			<path class="st1" d="M213.8,65.5c-0.8-0.4-1.8-0.4-2.8-0.4C212,65.2,213,65.3,213.8,65.5z"/>
			<path class="st1" d="M202.9,67.8c0.3,0,0.5-0.1,0.6-0.3c0.5-0.3,0.8-0.5,0.9-0.9C204.3,67.3,203.6,67.7,202.9,67.8z"/>
			<path class="st1" d="M197.6,65.4c-0.1,0.1-0.3,0.4-0.3,0.5c0,0.3,0.1,0.4,0.1,0.6C197.4,66.2,197.4,65.8,197.6,65.4z"/>
			<path class="st1" d="M202.6,68L202.6,68L202.6,68z"/>
			<path class="st1" d="M239.7,153c-0.3-1.8-0.4-3.7-0.5-5.1C239.2,149.3,239.5,151,239.7,153z"/>
			<path class="st1" d="M201.7,64.8c-1.3-0.3-2.6-0.1-3.3,0.3h0.1C199.5,64.6,200.7,64.6,201.7,64.8z"/>
			<path class="st1" d="M239.9,143.8L239.9,143.8L239.9,143.8z"/>
			<path class="st1" d="M206.5,116.4c0.1-0.1,0.3-0.1,0.3-0.3C206.7,116.3,206.6,116.3,206.5,116.4z"/>
			<path class="st1" d="M190.3,125.5c0.3-0.1,0.4-0.3,0.6-0.4c-0.4,0.3-1,0.4-1.8,0.5C189.6,125.6,190.1,125.6,190.3,125.5z"/>
			<path class="st1" d="M186,118.9c0.8-0.4,2.3-1.2,3.8-1.9C188.4,117.7,187,118.4,186,118.9z"/>
			<path class="st1" d="M207.6,172.5c1.8,1.2,4,1.3,5.9,0.3C211.4,173.6,209.1,173.5,207.6,172.5z"/>
			<path class="st1" d="M190.4,99.9c0.1,0,0.3,0,0.4,0C190.8,100,190.6,99.9,190.4,99.9z"/>
			<path class="st1" d="M206.2,117.4c0,0.1,0.1,0.3,0.3,0.4c0.5,0.6,1.7,0.9,2.7,0.8c-0.1,0-0.3,0-0.3,0
				C207.4,118.7,206.3,118,206.2,117.4z"/>
			<path class="st1" d="M186.9,123.6c0.1-0.1,0.3-0.3,0.4-0.3c-0.6,0.3-1.2,0.8-1.2,1.4c0,0.4,0.8,0.6,1.7,0.8h-0.1
				C186,125.1,185.7,124.6,186.9,123.6z"/>
			<path class="st1" d="M196.6,101.9c-0.1-1-0.4-1.2-1-1.3C196.1,100.8,196.5,101.1,196.6,101.9z"/>
			<path class="st1" d="M190.4,123.2c0.4,0.1,0.6,0.4,0.9,0.6C191.1,123.6,190.8,123.3,190.4,123.2L190.4,123.2z"/>
			<path class="st1" d="M217.3,168.5c0.1-0.4,0.3-0.9,0.4-1.3c-0.4,1.3-1,2.6-1.7,3.6C216.6,170.2,217,169.4,217.3,168.5z"/>
			<path class="st1" d="M210.4,116.3c-1-0.6-2.3-0.6-3.2-0.3C208.2,115.6,209.5,115.7,210.4,116.3z"/>
			<path class="st1" d="M206.1,117.2C206.1,117,206.1,117,206.1,117.2C206.1,117,206.1,117,206.1,117.2z"/>
			<path class="st1" d="M209.5,118.6c0.6-0.1,1.3-0.4,1.4-0.9c0,0,0,0,0-0.1C210.7,118,210.2,118.4,209.5,118.6z"/>
			<path class="st2" d="M249.2,144.6c-0.4-2.6-1-7.6-1.5-11c-0.5-3.5-1.7-12.3-2.7-19.6c-0.9-7.4-1.9-14.6-2.2-16.3
				c-0.3-2.2-0.1-3.1,0.6-4c1.2-1.3,1.4-4.6,0.5-5.5c-0.4-0.4-0.5-1.7-0.4-3.1c0.3-1.8,0.1-2.7-0.5-3.3c-0.6-0.5-0.8-1.2-0.5-2
				c0.8-1.8-0.3-3.8-2-4.4c-1.2-0.3-1.5-0.8-1.5-2.4c0-2.7-1.7-7.3-3.3-9.5c-0.8-0.9-2.9-2.6-4.9-3.6c-5.8-3.1-9.5-3.8-20.7-4.1
				c-9.5-0.3-10.4-0.1-14.1,1.2c-7.6,2.7-12.2,7.7-14.2,15.2c-0.6,2.3-1.8,5.1-2.6,6c-1.7,1.9-2.4,4.2-1.8,5.3
				c0.3,0.4,0,1.3-0.5,1.9c-0.5,0.8-1,3.1-1.3,5c-0.4,3.5-0.3,3.7,1.2,5c1.7,1.2,1.7,1.4,1.3,5.5c-0.3,2.4-0.6,5.9-0.9,7.7
				s-1,7.7-1.7,13.1c-0.6,5.4-1.9,15.1-2.7,21.4c-0.9,6.4-1.8,13.7-2,16.3c-0.3,2.6-0.8,5.1-0.9,5.8c-0.6,1.7,0.8,5.8,2.7,7.8
				c2,2.3,4.2,3.3,11.9,5.5c18.4,5.3,31.4,6.1,46,3.2c11.1-2.3,16.5-5.6,19.6-12c1.9-4.2,2-4.9,0.9-13.7
				C250.1,152.2,249.5,147.1,249.2,144.6z M180.3,84.8c1.8-1.4,1.9-2,0.8-3.3c-1.2-1.2-1.2-2.6-0.1-2.6c1.8,0,3.1-2.4,3.5-6.8
				c0.5-5.5,2.4-8.7,6.1-10.6c2.6-1.3,2.8-1.3,4.4-0.3c2.2,1.3,6.7,1.4,6.7,0.1c0-0.4-0.9-1-1.9-1.4c-1.7-0.5-1.3-0.6,2.6-0.4
				c2.4,0.1,5.8,0.4,7.3,0.6c1.8,0.3,3.1,0.1,3.6-0.3c0.5-0.5,1.9-0.6,3.8-0.3c2.6,0.3,2.9,0.5,2.7,1.5c-0.4,1.2,0.5,1.4,5.1,1.2
				c1.7-0.1,1.9,0,1.7,1c-0.3,0.9,0,1.4,1.2,1.8c1.7,0.8,3.2,4,3.2,6.8c0,2.7-1.7,3.8-7,4.9c-3.6,0.6-12.3,1.8-17.9,2.3
				c-1.2,0,0.8,0.1,4.2,0.3c10.6,0.1,23.3-1.7,24.6-3.7c0.9-1.3-1-6-3.3-8.5c-0.6-0.8-1-1.5-0.8-1.8c0.9-0.9,4.4,4,5.1,6.9
				c0.4,1.7,0.5,3.2,0.4,3.5c-0.6,0.9-7.6,2.9-12.5,3.6c-9.5,1.3-14.5,1.4-25,0.6c-14.7-1-14.3-1-14.3,0c0,1.4,8.5,2.3,22.2,2.3
				c12.9,0,20.6-0.8,27.4-2.9c3.5-1.2,3.8-1.2,5.3-0.3c1.5,0.9,1.7,2,0.4,2.6c-0.4,0.1-0.6-0.1-0.4-0.8c0.5-1.4-1.2-1.8-2.8-0.8
				c-1.7,1.2-11.5,3.3-14.5,3.3c-3.3,0-6.8,0.6-6.8,1.3c0,0.3,0.5,0.4,1.3,0.1c0.6-0.3,2.9-0.5,5.1-0.6c2.2,0,5.5-0.3,7.3-0.5
				c2.4-0.3,1.9,0-2,0.9c-7.2,1.5-22.3,2.2-31.2,1.2c-9.6-1-9.9-1-9.9,0c0,1.3,2.4,1.7,12.5,2.6c11,0.9,22.8,0,33-2.2
				c9.2-2,9.7-2,10-0.3c0.1,1.4,0.1,1.4-0.6,0.4c-0.8-1-0.9-1-3.2-0.1c-3.7,1.5-10.6,2.7-17.8,3.2c-6.8,0.4-10.4,1.3-5.9,1.5
				c5,0.1,10.2-0.1,14.9-1c2.6-0.5,5.8-1,6.8-1.2c4.2-0.5-3.1,1.5-8.3,2.4c-12,2-23.9,2.2-35,0.6c-6.8-1-8.1-0.9-6.8,0.5
				c1.3,1.5,10.6,2.6,22.8,2.6c12.3,0,17.2-0.5,26.6-3.1c5.3-1.4,5.6-1.4,6.8-0.4c0.6,0.5,1.2,1.3,1.2,1.5c0,0.8-6.9,2.7-13.1,4
				c-8.3,1.5-32.1,1.5-38.9,0c-4.6-1-10-3.3-10.6-4.5c-0.1-0.3,0.1-1.4,0.6-2.4c1-1.7,1-1.8-0.1-2.7C178.7,86,178.7,86,180.3,84.8z
				 M238.9,88.1c-0.1,0.1-0.8,0.3-1.2,0c-0.5-0.1-0.3-0.4,0.4-0.4C238.7,87.7,239.1,87.8,238.9,88.1z M239.9,154.3
				c0-0.4-0.1-0.9-0.1-1.3c-0.3-2-0.4-3.7-0.5-5.1c-0.1-0.9-0.1-1.7-0.1-2c0-0.6,0.1-1.3,0.1-1.5c0.1-0.4,0.3-0.6,0.4-0.6
				c0,0,0.1,0,0.3,0.1l0,0l0,0c0.3,0.3,0.5,0.8,0.6,1.8c2.8,16.4,2.7,23-0.8,24.3c-3.6,1.4-10.2-2.6-10.2-5.9v-1.5l1.2,1.8
				c1.5,2.4,4.4,3.5,6.5,2.4C240,165.4,240.8,161.6,239.9,154.3z M239.2,143c-1,0-1.3-0.5-1.7-5.3c-0.3-2.8-0.8-5.6-1-6
				c-0.4-0.6-0.4,0.1-0.1,2c0.1,1.7,0.4,8.1,0.5,14.3c0,9,0,11.7-0.8,12.3c-1.3,1.5-2.4,1.2-4.9-1.4c-2.6-2.8-2.4-2.2-3.8-22
				c-0.5-6.8-1-14.7-1.3-17.8c-0.5-6.5-0.4-6.5,5-3.1c3.6,2.3,3.7,2.4,3.8,5.1v2.8l0.3-2.6c0.3-3.1,1.4-3.1,2,0
				c0.5,2.4,2,12.9,2.6,17.9C240.3,142.8,240.3,143,239.2,143z M225.5,111.8l-0.4-5.6c-0.5-6.1-0.3-6.5,2.9-6.7c1,0,2.3-0.3,2.9-0.5
				c2.3-0.9,2.6-0.6,3.2,3.3c0.4,2.3,0.9,5.6,1.3,7.7c1.4,7.8,1.4,8.5,0.3,7.6c-0.6-0.5-1-1.8-1-3.6v-2.7l-0.3,2.6l-0.3,2.6
				l-4.4-2.2L225.5,111.8z M237.4,102.7c-0.3-4-0.1-5.1,0.5-5.5c1.4-0.9,1.5-0.6,2.3,3.6c0.9,5.6,0.9,7-0.4,7.4
				C238.3,108.8,237.8,107.9,237.4,102.7z M204.7,109.6l5.9,0.3c3.3,0,6.1,0.4,6.5,0.8c0.6,0.6,0.9,6.4,1.9,38.2
				c0.4,11.1,0.4,21.3,0.1,22.4c-0.5,2.7-1.7,3.3-5.8,3.3c-4.2,0-7.3-1.8-10-5.6c-1.9-2.9-1.9-3.1-1.7-8.1
				c0.1-2.8,0.8-13.7,1.3-24.5c0.5-10.6,1.2-21.1,1.3-23L204.7,109.6z M204.5,108.4v-3.3c0-1.9,0.1-3.6,0.4-3.8s3.1-0.3,6.4-0.3
				l6,0.1v3.8c0,3.1-0.1,3.8-0.9,3.7c-0.5-0.1-3.3-0.1-6.4-0.1L204.5,108.4z M194,120c0.6,0.1,1,0.4,1.2,0.8
				c0.1,1.5-0.9,21.1-1.7,33c-0.9,14.1-1.4,15.8-4,16.4c-2.2,0.5-7.6-1.5-9-3.5l-1.2-1.7l1.3-10.9c0.8-5.9,1.8-14.7,2.3-19.5
				c1.7-14.7,1.7-15.1,2.6-15.5c0.1,0,0.3-0.1,0.5-0.3c0.9-0.5,2.4-1.3,3.8-1.9c0.3-0.1,0.5-0.3,0.6-0.4c2.3-1.2,4.4-2,4.6-2
				c0.3,0,0.4,0.6,0.4,1.4c0,1.3-0.3,1.5-2.3,1.5c-1.5,0-2.4,0.3-2.7,0.9C190.3,119.2,190.8,119.5,194,120z M195.4,112.4
				c-0.5,0.8-6.9,4-9.3,4.7l-1.4,0.4l0.4-3.7c0.1-2,0.6-6.1,1-9.1l0.8-5.3l3.6,0.4c0.1,0,0.3,0,0.4,0c2.3,0.3,3.7,0.3,4.5,0.6
				c0.6,0.1,1,0.3,1,1.3c0.1,0.9,0,2.3-0.1,4.5C196.2,109.3,195.8,112.2,195.4,112.4z M247.9,170.2c-1.7,4.2-7.7,7-19.6,8.8
				c-11.4,1.8-23.7,0.9-38.3-2.9c-9.5-2.6-12.9-4-15.2-6.8c-2.3-2.8-2.6-4.6-1.5-11.7c0.9-5.9,2.6-19.2,4.2-32.1
				c1.4-11.8,3.3-26.3,3.6-27c0.1-0.4,0.5-0.8,0.8-0.8c0.3,0,0.9,0.4,1.4,0.8c0.9,0.8,0.9,1.7-0.1,11.1c-0.6,5.8-1.4,12.4-1.7,14.9
				c-0.4,2.4-0.8,6.3-0.9,8.6c-0.5,5.5-2.6,23.7-3.3,29.8c-0.8,5.8-0.3,7.2,3.7,9.1c6.5,3.3,12.5-0.3,14.5-8.7
				c0.5-1.9,1.2-10.2,1.5-18.6c0.4-8.3,0.9-18.3,1.3-22c0.3-3.7,0.8-10.2,0.9-14.5c0.1-7.4,0.1-7.4,1.7-7.4h1.4l-0.4,6.7
				c-0.1,3.7-0.9,16.5-1.5,28.4c-1.7,29.3-1.7,33.2-0.5,35.5c2.2,4,7,6.8,11.8,6.8c2.9,0,6.8-2.2,8.3-4.9c2.4-4,2.6-6.1,1.5-31.9
				c-1.3-32.8-1.4-40.3-0.6-40.6c0.8-0.4,1.2,3.2,2,17.5c0.4,5.5,0.9,12.9,1.3,16.4c0.4,3.5,0.9,10.2,1.2,15.2
				c1.2,17.5,1.3,18.1,2.8,20c2,2.4,4.5,3.6,7.7,3.7c2.6,0,2.9-0.1,5.3-2.9c4.9-5.5,5.1-9.7,2.4-27c-0.8-5.1-1.7-11.9-1.9-15.1
				c-0.3-3.6-0.8-6.1-1.2-6.7c-1.2-1.2-1.8-11.5-0.9-12.2c0.5-0.3,1-0.5,1.2-0.5c0.6,0,1,5,0.5,6c-0.3,0.6-0.5,2.2-0.5,3.6
				s0.1,2,0.4,1.4c0.8-2.9,1.2-1.5,2.2,6c0.6,4.5,1.5,11.9,2.2,16.3C248.6,163.6,248.8,167.7,247.9,170.2z"/>
			<path class="st2" d="M204.7,64.1c2.6,0.6,5.9-0.4,4.7-1.5c-0.8-0.8-4.7-1.2-6.3-0.8C201.5,62.3,202.4,63.5,204.7,64.1z"/>
			<path class="st2" d="M214,63.9c2.7,0,4.7-1,3.8-1.9c-0.5-0.5-5.9-0.5-6.3,0C210.3,63.1,211.3,63.9,214,63.9z"/>
			<path class="st2" d="M193.3,65.7c3.5,0,3.6-1.7,0.4-2.9c-2.4-0.9-4-0.9-4.4,0.3C188.7,64.5,190.6,65.7,193.3,65.7z"/>
			<path class="st2" d="M218.9,64.6c-0.6,0.4-0.9,0.8-0.9,1.4c0,1,0.4,1.2,2.6,1.2c1.4,0,2.9-0.4,3.5-0.9c0.9-0.8,0.9-0.9,0-1.7
				c-0.6-0.5-1.5-0.6-2.3-0.6c-0.5,0-1.2,0.1-2,0.4C219.3,64.5,219,64.5,218.9,64.6z"/>
			<path class="st2" d="M197.6,66.6c0.6,1,3.1,1.8,5,1.4l0,0c0.1,0,0.1,0,0.3,0c0.8-0.3,1.4-0.5,1.5-1c0.1-0.6-0.4-1.3-1.5-1.8
				c-0.4-0.1-0.9-0.3-1.3-0.4c-1-0.1-2.2-0.1-3.2,0.1h-0.1c-0.3,0.1-0.5,0.3-0.6,0.5C197.4,65.8,197.4,66.2,197.6,66.6z"/>
			<path class="st2" d="M214,67.8c1.5-0.8,1.7-1.4,0.1-2.2c-0.1,0-0.3-0.1-0.4-0.1c-0.8-0.3-1.8-0.4-2.8-0.4c-1,0.1-1.9,0.4-2.6,0.6
				c-1.3,1-0.8,2,1.5,2.4c0.1,0,0.1,0,0.3,0c0.3,0,0.5,0,0.8,0C212,68.5,213.1,68.2,214,67.8z"/>
			<path class="st2" d="M212.7,116.5c1.8,0.4,3.3-0.3,3.1-1.4c-0.3-0.5-1.2-1-2.4-1.2c-1.8-0.1-2.2,0-2.2,0.9
				C211.1,115.7,211.8,116.3,212.7,116.5z"/>
			<path class="st2" d="M206.1,117.3L206.1,117.3c0,0.1,0,0.1,0,0.3c0.3,0.6,1.3,1.2,2.7,1.2c0.1,0,0.3,0,0.3,0c0.1,0,0.3,0,0.4,0
				c0.6-0.1,1.2-0.5,1.4-0.9c0.1-0.5,0-1.2-0.5-1.4c-0.9-0.5-2.2-0.6-3.2-0.3l0,0c-0.1,0-0.3,0.1-0.4,0.3l0,0
				c-0.1,0.1-0.3,0.1-0.3,0.3l0,0l-0.1,0.1l0,0c-0.1,0.1-0.1,0.3-0.1,0.4l0,0v0.1C206.1,117.2,206.1,117.2,206.1,117.3z"/>
			<path class="st2" d="M212.2,120.9c-2.4,0.6-0.8,2.6,2.3,2.6c1.3,0,2.6-1.4,1.9-2C215.9,120.9,213.1,120.6,212.2,120.9z"/>
			<path class="st2" d="M203.9,165.2c0,2,2,6.1,3.6,7.3c1.5,1,3.8,1.2,5.9,0.3c1-0.5,1.8-1.2,2.6-2c0.8-1,1.3-2.2,1.7-3.6
				c0.3-1.3,0.5-2.7,0.4-3.7l-0.1-2.3l-1.5,2.7c-2.6,4.6-6.3,5.1-10.8,1.4l-1.8-1.5v1.5H203.9z"/>
			<path class="st2" d="M233.1,120.4c0-0.3-0.8-0.9-1.5-1.2c-0.4-0.1-0.6-0.3-0.9-0.4h-0.1c-0.8-0.3-1.2-0.1-1.9,0.3l0,0
				c-0.4,0.3-0.6,0.6-0.8,0.9c0,0.5,0.4,1,1.2,1.3C230.3,121.8,233.1,121.1,233.1,120.4z"/>
			<path class="st2" d="M231.9,127.5c0.1,0,0.4,0,0.5,0c0.9-0.1,1.5-0.5,1.5-1c0-0.1,0-0.3-0.1-0.4c-0.3-0.4-1-0.6-2-0.8
				c-1.4-0.1-2.4,0.3-2.7,0.6c-0.1,0.3-0.1,0.4,0,0.5c0,0.1,0.1,0.3,0.1,0.4C229.6,127.4,230.7,127.7,231.9,127.5z"/>
			<ellipse class="st2" cx="236" cy="128.4" rx="0.6" ry="0.9"/>
			<path class="st2" d="M190.4,123.2c-1-0.4-2.3-0.3-3.2,0.1c-0.1,0.1-0.3,0.1-0.4,0.3c-1,1-0.9,1.5,0.9,1.9h0.1
				c0.4,0.1,0.9,0.1,1.4,0.1c0.8,0,1.4-0.1,1.8-0.5c0.5-0.4,0.6-0.9,0.4-1.4C191.1,123.6,190.7,123.3,190.4,123.2z"/>
			<path class="st2" d="M185.3,162.2l-1.3-1.3c-1.7-1.7-1.9-1.5-2.3,0.8c-0.5,2.6,0.5,5.4,2.4,6.4c1.3,0.8,1.7,0.6,3.1-0.4
				c3.6-2.7,4-4.2,4.7-20.2c0.4-8.1,0.6-14.9,0.5-15c-0.1-0.1-0.4,1-0.5,2.6c-0.9,10.1-3.7,22.8-5.6,25.6L185.3,162.2z"/>
			<path class="st3" d="M179.8,86.9c1.2,0.9,1.2,0.9,0.1,2.7c-0.5,1-0.9,2-0.6,2.4c0.8,1.2,6,3.3,10.6,4.5c6.8,1.5,30.7,1.7,38.9,0
				c6.1-1.2,13.1-3.2,13.1-4c0-0.3-0.5-0.9-1.2-1.5c-1-1-1.4-0.9-6.8,0.4c-9.5,2.6-14.3,3.1-26.6,3.1c-12.2,0-21.5-1-22.8-2.6
				c-1.2-1.5,0-1.7,6.8-0.5c11,1.7,22.9,1.4,35-0.6c5.3-0.9,12.5-2.9,8.3-2.4c-1.2,0.1-4.2,0.8-6.8,1.2c-4.6,0.9-10,1.2-14.9,1
				c-4.5-0.1-0.9-1,5.9-1.5c7-0.4,14-1.7,17.8-3.2c2.3-0.9,2.4-0.9,3.2,0.1c0.9,1,0.9,1,0.6-0.4c-0.3-1.8-0.9-1.8-10,0.3
				c-10.1,2.3-21.9,3.1-33,2.2c-10.1-0.8-12.5-1.3-12.5-2.6c0-0.9,0.3-0.9,9.9,0c9,0.9,24.1,0.4,31.2-1.2c4.1-0.9,4.5-1,2-0.9
				c-1.8,0.3-5.1,0.5-7.3,0.5c-2.2,0.1-4.5,0.4-5.1,0.6c-0.8,0.1-1.3,0.1-1.3-0.1c0-0.6,3.3-1.3,6.8-1.3c3.1,0,12.8-2.3,14.5-3.3
				c1.7-1,3.3-0.6,2.8,0.8c-0.3,0.6,0,0.9,0.4,0.8c1.3-0.5,1.2-1.7-0.4-2.6c-1.4-0.9-1.7-0.9-5.3,0.3c-6.8,2.2-14.5,3.1-27.4,2.9
				c-13.8,0-22.2-0.9-22.2-2.3c0-1-0.5-1,14.3,0c10.5,0.8,15.5,0.6,25-0.6c5.1-0.6,11.9-2.6,12.5-3.6c0.1-0.4,0-1.9-0.4-3.5
				c-0.8-2.9-4.2-7.8-5.1-6.9c-0.3,0.3,0.1,1,0.8,1.8c2.3,2.4,4.1,7.2,3.3,8.5c-1.3,1.9-13.8,3.8-24.6,3.7c-3.5,0-5.3-0.1-4.2-0.3
				c5.6-0.5,14.3-1.7,17.9-2.3c5.4-1,7-2.2,7-4.9c0-2.9-1.5-6-3.2-6.8c-1-0.5-1.4-1-1.2-1.8c0.3-1,0-1.2-1.7-1
				c-4.6,0.3-5.5,0-5.1-1.2c0.3-0.9-0.1-1.2-2.7-1.5c-1.9-0.3-3.3-0.1-3.8,0.3c-0.5,0.4-1.8,0.5-3.6,0.3c-1.7-0.3-4.9-0.5-7.3-0.6
				c-3.8-0.1-4.2-0.1-2.6,0.4c1,0.4,1.9,1,1.9,1.4c0,1.2-4.5,1-6.7-0.1c-1.7-0.9-1.8-0.9-4.4,0.3c-3.7,1.8-5.6,5.1-6.1,10.6
				c-0.4,4.4-1.7,6.8-3.5,6.8c-1,0-1,1.5,0.1,2.6c1.3,1.3,1.2,1.9-0.8,3.3C178.7,86,178.7,86,179.8,86.9z M210.9,68.5
				c-0.3,0-0.5,0-0.8,0c-1.2-0.1-2-0.5-2.4-1c-0.4-0.5,0-1,0.6-1.4c0.6-0.4,1.5-0.6,2.6-0.6c0.9-0.1,1.9,0,2.8,0.4
				c0.1,0,0.3,0.1,0.4,0.1c1.5,0.8,1.4,1.4-0.1,2.2c-0.1,0.1-0.3,0.1-0.5,0.3C212.7,68.4,211.8,68.5,210.9,68.5z M221.4,64
				c0.9,0,1.8,0.3,2.3,0.6c0.9,0.8,1,0.9,0,1.7c-0.5,0.4-2,0.9-3.5,0.9c-2,0-2.6-0.1-2.6-1.2c0-0.5,0.4-1,0.9-1.4
				C219.5,64.3,220.5,64,221.4,64z M211.4,62c0.5-0.5,5.9-0.5,6.3,0c0.9,0.9-1,1.9-3.8,1.9C211.3,63.9,210.3,63.1,211.4,62z
				 M203.1,62c1.5-0.5,5.6,0,6.3,0.8c1,1-2.3,2.2-4.7,1.5C202.4,63.5,201.5,62.3,203.1,62z M197.6,65.4c0.1-0.3,0.4-0.4,0.6-0.5
				c0.8-0.4,2-0.5,3.3-0.3c0.5,0.1,0.9,0.3,1.3,0.4c1.2,0.4,1.7,1.2,1.5,1.8c-0.1,0.4-0.4,0.6-0.9,0.9c-0.3,0.1-0.5,0.1-0.6,0.3
				c-0.1,0-0.1,0-0.3,0l0,0c-2,0.4-4.4-0.3-5-1.4c-0.1-0.1-0.1-0.4-0.1-0.6C197.4,65.8,197.5,65.7,197.6,65.4z M189.3,63.1
				c0.4-1.2,2-1.3,4.4-0.3c3.3,1.3,3.1,2.9-0.4,2.9C190.6,65.7,188.7,64.5,189.3,63.1z"/>
			<path class="st3" d="M238.1,87.8c-0.6,0-0.9,0.1-0.4,0.4c0.4,0.1,0.9,0.1,1.2,0C239.1,87.8,238.7,87.7,238.1,87.8z"/>
			<path class="st3" d="M240.3,100.8c-0.8-4.2-0.9-4.5-2.3-3.6c-0.6,0.4-0.8,1.5-0.5,5.5c0.4,5.3,0.9,6.1,2.4,5.5
				C241,107.8,241.2,106.4,240.3,100.8z"/>
			<path class="st3" d="M243.5,126.2c-1-7.7-1.5-9-2.2-6c-0.1,0.6-0.3,0-0.4-1.4c0-1.4,0.1-3.1,0.5-3.6c0.6-1,0.1-6-0.5-6
				c-0.1,0-0.8,0.3-1.2,0.5c-1,0.6-0.4,11,0.9,12.2c0.5,0.5,0.9,3.1,1.2,6.7c0.3,3.2,1.2,10.1,1.9,15.1c2.8,17.3,2.4,21.5-2.4,27
				c-2.4,2.7-2.7,2.9-5.3,2.9c-3.2,0-5.8-1.3-7.7-3.7c-1.7-1.9-1.7-2.6-2.8-20c-0.4-5-0.9-11.8-1.2-15.2c-0.3-3.5-0.9-10.9-1.3-16.4
				c-0.9-14.3-1.3-17.9-2-17.5s-0.6,7.9,0.6,40.6c1,25.7,0.9,27.9-1.5,31.9c-1.7,2.7-5.4,4.9-8.3,4.9c-4.7,0-9.6-2.9-11.8-6.8
				c-1.2-2.2-1.2-6,0.5-35.5c0.6-11.9,1.3-24.7,1.5-28.4l0.4-6.7h-1.4c-1.5,0-1.5,0-1.8,7.6c-0.3,4.2-0.6,10.8-0.9,14.5
				c-0.3,3.7-0.9,13.7-1.3,22c-0.4,8.5-1,16.8-1.5,18.6c-2,8.5-7.9,12-14.5,8.7c-4-1.9-4.5-3.3-3.7-9.1c0.9-6.1,2.9-24.5,3.3-29.8
				c0.1-2.3,0.6-6.1,0.9-8.6c0.4-2.4,1.2-9.2,1.7-14.9c1-9.5,1-10.5,0.1-11.1c-0.5-0.4-1.2-0.8-1.4-0.8c-0.3,0-0.6,0.4-0.8,0.8
				c-0.3,0.8-2.2,15.2-3.6,27c-1.7,12.9-3.3,26.3-4.2,32.1c-1,7-0.8,8.8,1.5,11.7c2.3,2.8,5.8,4.2,15.2,6.8
				c14.6,3.7,26.9,4.7,38.3,2.9c11.9-1.8,17.9-4.6,19.6-8.8c0.9-2.6,0.6-6.7-2.3-27.8C245,138,244.1,130.7,243.5,126.2z"/>
			<path class="st3" d="M234.2,116.3l0.3-2.6l0.3-2.6v2.7c0,1.7,0.5,3.1,1,3.6c1,0.9,1,0.4-0.3-7.6c-0.4-1.9-0.9-5.4-1.3-7.7
				c-0.6-4.1-0.9-4.4-3.2-3.3c-0.6,0.3-1.9,0.5-2.9,0.5c-3.2,0.1-3.3,0.5-2.9,6.7l0.4,5.6l4.4,2.2L234.2,116.3z"/>
			<path class="st3" d="M196.6,101.9c-0.1-0.6-0.4-1-1-1.3c-0.9-0.3-2.2-0.4-4.5-0.6c-0.1,0-0.3,0-0.4,0l-3.6-0.4l-0.8,5.3
				c-0.4,2.8-0.9,6.9-1,9.1l-0.4,3.7l1.4-0.4c2.4-0.8,8.8-4,9.3-4.7c0.3-0.4,0.8-3.2,0.9-6.1C196.6,104.1,196.7,102.8,196.6,101.9z"
				/>
			<path class="st3" d="M216.6,108.7c0.6,0.1,0.9-0.6,0.9-3.7v-3.8l-6-0.1c-3.3,0-6.1,0-6.4,0.3c-0.3,0.3-0.4,1.9-0.4,3.8v3.3h5.5
				C213.1,108.4,216.1,108.6,216.6,108.7z"/>
			<path class="st3" d="M203,136.5c-0.5,10.6-1.2,21.6-1.3,24.5c-0.3,5-0.3,5.1,1.7,8.1c2.6,3.8,5.8,5.6,10,5.6
				c4.1,0,5.3-0.6,5.8-3.3c0.3-1.2,0.1-11.3-0.1-22.4c-1-31.8-1.3-37.5-1.9-38.2c-0.4-0.4-3.2-0.8-6.5-0.8l-5.9-0.3l-0.4,3.8
				C204.1,115.5,203.5,125.9,203,136.5z M214.4,123.4c-3.1,0-4.7-1.9-2.3-2.6c0.9-0.3,3.7,0,4.2,0.5
				C217.1,122,215.7,123.4,214.4,123.4z M213.2,114.1c1.5,0.1,2.3,0.5,2.4,1.2l0,0c0.3,1.2-1.3,1.8-3.1,1.4h-0.1
				c-0.9-0.3-1.4-0.8-1.4-1.5C211.1,114.1,211.4,113.8,213.2,114.1z M206.1,116.9c0-0.1,0.1-0.3,0.1-0.4l0,0l0.1-0.1l0,0
				c0.1-0.1,0.3-0.1,0.3-0.3l0,0c0.1-0.1,0.3-0.1,0.4-0.3l0,0c0.9-0.4,2.2-0.4,3.2,0.3c0.5,0.3,0.6,0.9,0.5,1.4c0,0,0,0,0,0.1
				c-0.1,0.5-0.8,0.8-1.4,0.9c-0.1,0-0.3,0-0.4,0c-1,0.1-2.2-0.1-2.7-0.8c-0.1-0.1-0.3-0.3-0.3-0.4v-0.1v-0.1V117
				C206.1,117,206.1,117,206.1,116.9C206.1,117,206.1,116.9,206.1,116.9z M205.7,165.3c4.4,3.7,8.1,3.3,10.8-1.4l1.5-2.7l0.1,2.3
				c0.1,0.9-0.1,2.4-0.4,3.7c-0.1,0.5-0.3,0.9-0.4,1.3c-0.4,0.9-0.8,1.5-1.3,2.2c-0.8,0.9-1.7,1.5-2.6,2c-1.9,0.9-4.1,0.9-5.9-0.3
				c-1.5-1.2-3.6-5.1-3.6-7.3v-1.4L205.7,165.3z"/>
			<path class="st3" d="M237.3,121.6c-0.6-3.1-1.7-2.9-2,0l-0.3,2.6v-2.8c-0.1-2.8-0.1-2.8-3.8-5.1c-5.4-3.5-5.5-3.3-5,3.1
				c0.3,3.1,0.8,11,1.3,17.8c1.4,19.8,1.3,19.2,3.8,22c2.4,2.6,3.6,2.9,4.9,1.4c0.6-0.8,0.8-3.3,0.8-12.3
				c-0.1-6.3-0.3-12.7-0.5-14.3c-0.3-1.9-0.1-2.7,0.1-2c0.3,0.5,0.8,3.2,1,6c0.4,4.7,0.5,5.3,1.7,5.3c1,0,1.2-0.3,0.8-3.5
				C239.4,134.7,237.8,124.1,237.3,121.6z M227.8,120c0-0.4,0.3-0.6,0.8-0.9c0.3-0.1,0.6-0.3,1.2-0.4c0.1,0,0.5,0,0.9,0.1h0.1
				c0.3,0.1,0.6,0.3,0.9,0.4c0.9,0.3,1.5,0.9,1.5,1.2c0,0.8-2.8,1.4-4.2,0.9C228.1,121.1,227.7,120.5,227.8,120z M229.4,127.1
				c-0.1-0.1-0.1-0.1-0.1-0.3c-0.1-0.1-0.1-0.3-0.1-0.4c0-0.3,0-0.4,0-0.5c0.3-0.5,1.3-0.8,2.7-0.6c1.2,0.1,1.9,0.4,2,0.8
				c0,0.1,0.1,0.3,0.1,0.4c0,0.5-0.6,0.8-1.5,1C231.3,127.7,229.9,127.7,229.4,127.1z M236,129.3c-0.3,0-0.6-0.4-0.6-0.9
				s0.3-0.9,0.6-0.9c0.4,0,0.6,0.4,0.6,0.9S236.4,129.3,236,129.3z"/>
			<path class="st3" d="M193.3,117.4c2,0,2.3-0.1,2.3-1.5c0-0.9-0.1-1.5-0.4-1.4c-0.3,0-2.3,0.9-4.6,2c-0.3,0.1-0.5,0.3-0.6,0.4
				c-1.5,0.8-3.1,1.5-3.8,1.9c-0.3,0.1-0.4,0.3-0.5,0.3c-0.9,0.5-1,0.9-2.6,15.5c-0.5,4.7-1.5,13.6-2.3,19.5l-1.3,10.9l1.2,1.7
				c1.4,1.9,6.8,4,9,3.5c2.6-0.6,3.1-2.3,4-16.4c0.9-11.9,1.8-31.5,1.7-33c0-0.4-0.5-0.6-1.2-0.8c-3.2-0.5-3.7-0.8-3.3-1.7
				C190.8,117.8,191.9,117.4,193.3,117.4z M192.4,132.5c0.1,0.1,0,6.8-0.5,15c-0.8,16-1.2,17.5-4.7,20.2c-1.4,1-1.8,1.2-3.1,0.4
				c-1.8-0.9-2.8-3.7-2.4-6.4c0.4-2.3,0.6-2.4,2.3-0.8l1.3,1.3l0.9-1.4c1.9-2.9,4.7-15.6,5.6-25.6
				C192,133.5,192.2,132.4,192.4,132.5z M191.2,123.8c0.3,0.5,0.1,1-0.4,1.4c-0.1,0.1-0.4,0.3-0.6,0.4c-0.3,0.1-0.8,0.1-1.2,0.1
				c-0.4,0-0.9,0-1.4-0.1c-0.9-0.1-1.7-0.5-1.7-0.8c0-0.6,0.5-1.2,1.2-1.4c0.9-0.4,2-0.5,3.2-0.1h0.1
				C190.8,123.3,191.1,123.6,191.2,123.8z"/>
			<path class="st3" d="M237.2,166.7c-2.2,1-5.1,0-6.5-2.4l-1.2-1.8v1.5c0,3.5,6.7,7.3,10.2,5.9c3.5-1.3,3.6-7.9,0.8-24.3
				c-0.1-0.9-0.4-1.5-0.6-1.8l0,0l0,0c-0.3-0.1-0.5,0-0.6,0.5c-0.1,0.4-0.1,0.9-0.1,1.5c0,0.4,0.1,1.2,0.1,2
				c0.1,1.4,0.3,3.2,0.5,5.1c0,0.4,0.1,0.9,0.1,1.3C240.8,161.6,240,165.4,237.2,166.7z"/>
		</g>
		<g>
			<path class="st4" d="M109.1,105.8c7.9,17.4-7.3,33.5,0.5,50.5s33.8,8.5,30.3-5.8c-2.6-10.8-12.9-4.5-11.3,0.6
				c0.9,2.9-2.4,5.3-4,1.8c-2.4-5.3-1-12.2,5.5-15.1c17.3-7.9,38.5,25.5,2.3,42.1c-37.6,17.3-72.6-32-69.1-60.8
				c3.5-29.1,19.8-25.6,22.9-26C89.3,92.7,109.1,105.8,109.1,105.8z"/>
			<path class="st5" d="M88,119.3c0.3-1.3,10.4-4.2,10.8-5.5c0.4-1.2,0.3-6.1,1.5-6.7c1.2-0.5,7.4,7.7,5.5,10.1
				c-2,2.4-6.3,8.1-5.8,9.1c0.5,1,6-1.5,6.5-0.6c0.1,0.3,0.9,1,0.6,2.2c-1.4,4.4-7.7,18.1-6.1,21.4c0.3,0.6,6.8,9.5,6.4,10.5
				s-1.4,3.6-0.6,3.7c0.9,0.1,3.8,1,4.4,1.4c0.5,0.4,0.3,0.1,1.3,1c1,0.8,0.1,6.4,1.5,6.5c1.4,0.1,6-2.6,7.2-2.7
				c2-0.1,6.3-0.1,7.2-0.4c1.4-0.4,6.4-4,8.7-4.5c2.4-0.5-2.6,2.3-3.8,3.8c-1.4,1.5-4.1,3.6-5.3,4.2c-3.3,1.5-4-1.2-5.9-0.5
				c-2,0.6-7.9,3.8-9.1,3.5c-2.3-0.9-1.7-3.7-3.6-4c-1.9-0.3-3.5,1.4-4.2-0.6c-0.8-2-4.4-4.2-4.6-5.4c-0.4-1.2,1.7-3.5,0.6-4
				c-1-0.5-3.7-0.6-4.6-1.9c-0.9-1.3-10.5-15.5-9.9-17c0.8-1.7,7.6-2.3,7.9-3.3c0.4-1-5.1-2-5-3.8c0.1-1.8,0-2.9-0.8-7.6
				C88.4,125.2,88.1,122.3,88,119.3L88,119.3z"/>
			<path class="st6" d="M83.5,103.3c2.2,0.6,6,8.7,8.1,8.2c1.5-0.4,3.2-9.3,4.7-10.1c4.4-1.9,11.4,8.8,14.9,7.3
				c0,0-3.7-10.9-10.4-14.2c-6.7-3.2-11.3-2.4-14.3-8.7c-1.3-2.6-2-8.3-4.7-12.8c0.3,1.3,0.1,3.3,0,4.6c-0.5,5.1-6.4,15-6.4,16.9
				c0.1,1.9,1.8,16.3,2.2,19.6C79.4,113.7,81.6,102.8,83.5,103.3z"/>
			<path class="st7" d="M79,97.3c2-3.8,3.2-4.7,3.2-5.8c0-1,1-9.9,1.2-14.2c0-1.2-1.5-3.1-1.8-4.4c-3.8-6.5-11.1-12.4-23.2-7.2
				c-3.5,1.5-6.3,5.4-6.3,5.4c-2.9,4.1-4.4,10-2.4,15.2c0.5,1.5,2.3,2.6,4.2,2.4c1.7,0,3.2-0.8,4.2-2l0.1-0.1
				c0.8-0.9,0.9-1.5,0.6-2.3c-0.1-0.6-0.6-1.2-1.2-1.7c-1-1-2.3-2.2-3.3-3.7c-0.1-0.3-0.4-0.5-0.5-0.9c0.4-0.8,2-5.5,6-7.4
				c7-3.5,11.8-1.8,15.2,5.6c5.8,12.4-15.1,25.9-11.4,37.8c0.8,2.4,5.8-9.1,7.9-8.8c2.2,0.3,3.3,9.1,5.6,8.8l0,0
				C77.1,110.7,75.3,104.2,79,97.3z"/>
		</g>
	</g>
	<g>
		<path d="M46.9,201.3c0-5,1.3-8.6,3.8-10.8c2.5-2.2,6.6-3.3,12.2-3.3c3.9,0,7.1,1,9.5,3.1c2.4,2,4.1,5.2,5.2,9.4l-7.1,5.4h-3.8
			l8.3-6.2c-1.1-3.4-2.6-5.8-4.6-7.2c-2-1.4-4.5-2.1-7.5-2.1c-2,0-3.8,0.1-5.2,0.4c-1.4,0.3-2.8,0.8-4.2,1.5
			c-1.4,0.7-2.5,1.9-3.2,3.6c-0.7,1.6-1.1,3.7-1.1,6.3c0,2.3,1,4.3,3.1,6c2.1,1.7,4.6,3.2,7.6,4.5c3,1.2,6,2.5,9,3.8
			c3,1.3,5.5,2.9,7.6,4.9c2.1,2,3.1,4.3,3.1,6.9c0,5.1-1.3,8.9-3.8,11.4c-2.5,2.5-6.9,3.8-13,3.8c-5,0-9-1-11.8-3
			c-2.9-2-4.8-5.2-5.9-9.4l2.2-0.9c1,4.1,2.8,7,5.3,8.6c2.5,1.6,5.9,2.4,10.3,2.4c4.9,0,8.6-0.9,10.9-2.8c2.4-1.9,3.6-5.2,3.6-10.1
			c0-2.3-1-4.3-3.1-6c-2.1-1.7-4.6-3.2-7.6-4.5c-3-1.2-6-2.5-9-3.8c-3-1.3-5.5-2.9-7.6-4.9C48,206.2,46.9,203.9,46.9,201.3z"/>
		<path d="M110.4,225.2l-1.2-2l4.3-2.5c3.5-1.9,5.3-5,5.3-9.3c0-7.9-6-11.9-18.1-11.9h-7.1v57.6h-2.3v-59.9h9.4
			c6.8,0,11.9,1.2,15.3,3.7c3.4,2.5,5.1,6,5.1,10.5c0,5.1-2.2,8.9-6.5,11.3L110.4,225.2z"/>
		<path d="M132,197.2h2.3v44.6H132V197.2z"/>
		<path d="M151.1,237.1c-2.8-3.6-4.1-9.5-4.1-17.6c0-8.1,1.4-14,4.1-17.6c2.8-3.6,7.4-5.5,13.8-5.5c6.4,0,11,1.8,13.8,5.3l-1.7,1.5
			c-2.3-3-6.3-4.5-12.1-4.5c-2.6,0-4.7,0.3-6.5,0.8s-3.3,1.5-4.8,3c-1.5,1.5-2.5,3.6-3.3,6.4c-0.7,2.8-1.1,6.3-1.1,10.6
			c0,4.3,0.4,7.8,1.1,10.6c0.7,2.8,1.8,4.9,3.3,6.4c1.5,1.5,3.1,2.5,4.8,3c1.7,0.5,3.9,0.8,6.5,0.8c5.8,0,9.9-1.5,12.1-4.5l1.7,1.5
			c-2.8,3.5-7.4,5.3-13.8,5.3C158.5,242.5,153.9,240.7,151.1,237.1z"/>
		<path d="M219.9,237.2c-2.8,3.5-7.4,5.3-13.8,5.3s-11-1.8-13.8-5.5c-2.8-3.6-4.1-9.5-4.1-17.6c0-8.1,1.4-14,4.1-17.6
			c2.8-3.6,7.3-5.5,13.8-5.5c7.4,0,12.5,2.4,15.1,7.3l-18.8,15.8h-3.6l19.4-16.2c-2.3-3-6.3-4.5-12.1-4.5c-2.6,0-4.7,0.3-6.5,0.8
			c-1.7,0.5-3.3,1.5-4.8,3c-1.5,1.5-2.5,3.6-3.3,6.4c-0.7,2.8-1.1,6.3-1.1,10.6c0,4.3,0.4,7.8,1.1,10.6c0.7,2.8,1.8,4.9,3.3,6.4
			c1.5,1.5,3.1,2.5,4.8,3c1.7,0.5,3.9,0.8,6.5,0.8c5.8,0,9.9-1.5,12.1-4.5L219.9,237.2z"/>
		<path d="M244,196.3c6.4,0,10.9,1.4,13.5,4.2l-1.5,1.7c-2.5-2.4-6.4-3.6-11.7-3.6c-8,0-12,3.2-12,9.5c0,2.5,1,4.4,2.9,5.9
			c1.9,1.5,4.3,2.6,7.1,3.3c2.8,0.8,5.6,1.6,8.4,2.4c2.8,0.8,5.1,2.2,7.1,4.1c1.9,1.9,2.9,4.3,2.9,7.3c0,3.5-1.5,6.4-4.4,8.5
			c-2.9,2.1-7.1,3.2-12.7,3.2c-2.7,0-5.4-0.4-8-1.1c-2.6-0.7-4.6-1.8-5.9-3.2l1.5-1.7c2.6,2.4,6.6,3.6,12.1,3.6
			c5,0,8.7-0.9,11.3-2.8c2.5-1.8,3.8-4,3.8-6.5c0-2.6-1-4.6-2.9-6.2c-1.9-1.6-4.3-2.8-7.1-3.6c-2.8-0.8-5.6-1.6-8.4-2.5
			c-2.8-0.8-5.1-2.2-7.1-3.9c-1.9-1.8-2.9-4.1-2.9-7.1c0-3.9,1.3-6.9,4-8.8C236.6,197.2,239.9,196.3,244,196.3z"/>
	</g>
</g>
</svg>
